<svg width="549" height="77" viewBox="0 0 549 77" fill="none" xmlns="http://www.w3.org/2000/svg">
<path d="M522.865 9.20611V3.03122C522.865 1.67707 523.515 1 524.815 1H530.665C531.26 1 531.721 1.18958 532.046 1.56874C532.371 1.9479 532.533 2.43539 532.533 3.03122V9.20611C532.533 10.4519 531.91 11.0748 530.665 11.0748H524.815C524.273 11.0748 523.813 10.8853 523.434 10.5061C523.054 10.1811 522.865 9.74777 522.865 9.20611ZM507.265 75.83V65.3489L534.483 26.8371H507.265V16.356H548.214V26.8371L522.296 65.3489H548.214V75.83H507.265Z" fill="white"/>
<path d="M454.881 75.83V16.356H466.419L489.981 54.7866V16.356H501.356V75.83H489.981L466.337 37.8056V75.83H454.881Z" fill="white"/>
<path d="M396.514 75.83L416.582 16.356H429.501L448.838 75.83H436.732L432.507 62.6677H413.007L408.701 75.83H396.514ZM416.013 52.5929H429.826L423.163 31.3058L416.013 52.5929Z" fill="white"/>
<path d="M348.543 75.83V16.356H374.542C376.98 16.356 379.146 16.681 381.042 17.331C382.938 17.9268 384.617 18.9289 386.08 20.3372C387.596 21.6913 388.761 23.6142 389.573 26.1058C390.386 28.5433 390.792 31.4683 390.792 34.8807C390.792 37.6973 390.548 40.1619 390.061 42.2743C389.573 44.3868 389.032 46.0118 388.436 47.1492C387.84 48.2326 387.028 49.2075 385.998 50.0742C384.969 50.8867 384.184 51.4013 383.642 51.6179C383.101 51.8346 382.315 52.1054 381.286 52.4304L392.58 75.83H379.742L369.911 53.3241L359.918 52.1867V75.83H348.543ZM359.999 43.2493H373.486C374.569 43.2493 375.436 43.1681 376.086 43.0056C376.736 42.7889 377.305 42.3827 377.792 41.7868C378.334 41.191 378.713 40.3514 378.93 39.2681C379.201 38.1306 379.336 36.6682 379.336 34.8807C379.336 31.6849 378.849 29.4912 377.874 28.2996C376.899 27.0537 375.436 26.4308 373.486 26.4308H359.999V43.2493Z" fill="white"/>
<path d="M300.239 75.83V16.356H324.776C330.518 16.356 334.743 17.8456 337.451 20.8247C340.159 23.7496 341.513 27.5683 341.513 32.2807C341.513 35.314 340.836 38.0765 339.482 40.5681C338.128 43.0056 336.097 44.468 333.389 44.9555C335.989 45.443 338.155 46.9055 339.889 49.343C341.622 51.7263 342.488 54.7325 342.488 58.3616C342.488 61.1782 342.136 63.6427 341.432 65.7552C340.782 67.8677 339.753 69.6822 338.345 71.1988C336.991 72.7155 335.176 73.88 332.901 74.6925C330.68 75.4509 328.026 75.83 324.939 75.83H300.239ZM311.614 65.7552L324.533 65.8364C328.92 65.8364 331.114 63.1823 331.114 57.8741C331.114 56.3033 330.897 54.922 330.464 53.7304C330.084 52.5387 329.38 51.5367 328.351 50.7242C327.322 49.9117 326.049 49.5055 324.533 49.5055H311.614V65.7552ZM311.614 39.9181H324.045C326.103 39.9181 327.647 39.3494 328.676 38.2119C329.759 37.0202 330.301 35.3411 330.301 33.1745C330.301 32.3078 330.22 31.5224 330.057 30.8183C329.895 30.0599 329.651 29.437 329.326 28.9495C329.001 28.4621 328.649 28.0558 328.27 27.7308C327.891 27.3517 327.457 27.0808 326.97 26.9183C326.482 26.7558 325.995 26.6475 325.507 26.5933C325.074 26.485 324.587 26.4308 324.045 26.4308H311.614V39.9181Z" fill="white"/>
<path d="M225 36.3432V31.2245C225 28.9495 225.27 26.9183 225.812 25.1309C226.354 23.3434 227.085 21.8809 228.006 20.7434C228.927 19.6059 230.064 18.6851 231.418 17.981C232.827 17.2227 234.289 16.7081 235.806 16.4373C237.376 16.1123 239.137 15.9227 241.087 15.8685C245.203 15.7602 249.455 15.9498 253.843 16.4373C258.23 16.9247 261.643 17.5206 264.08 18.2247V27.1621C257.905 26.6204 251.27 26.3496 244.174 26.3496C241.303 26.2954 239.272 26.6204 238.081 27.3246C236.943 27.9746 236.374 29.5724 236.374 32.1182V35.0432C236.374 37.3182 236.835 38.8348 237.756 39.5931C238.676 40.3514 240.329 40.7306 242.712 40.7306H252.137C253.545 40.7306 254.845 40.866 256.037 41.1368C257.282 41.4077 258.339 41.7868 259.205 42.2743C260.126 42.7618 260.939 43.3306 261.643 43.9805C262.401 44.6305 263.024 45.3618 263.511 46.1743C264.053 46.9867 264.486 47.8263 264.811 48.693C265.191 49.5054 265.461 50.3721 265.624 51.2929C265.841 52.2137 265.976 53.1075 266.03 53.9741C266.139 54.7866 266.193 55.6262 266.193 56.4928V60.474C266.193 63.074 265.868 65.3489 265.218 67.2989C264.568 69.2489 263.728 70.7926 262.699 71.9301C261.724 73.0676 260.478 73.9884 258.962 74.6925C257.499 75.3967 256.037 75.8571 254.574 76.0738C253.112 76.3446 251.514 76.48 249.78 76.48C239.976 76.48 232.312 75.6675 226.787 74.0425V65.1052C232.745 65.701 239.651 65.9989 247.505 65.9989C248.535 65.9989 249.401 65.9448 250.105 65.8364C250.864 65.7281 251.622 65.5114 252.38 65.1864C253.193 64.8614 253.789 64.3469 254.168 63.6427C254.601 62.8844 254.818 61.9636 254.818 60.8803V57.7116C254.818 55.8158 254.439 54.4075 253.68 53.4866C252.922 52.5658 251.514 52.1054 249.455 52.1054H240.356C230.118 52.0512 225 46.7972 225 36.3432Z" fill="white"/>
<path d="M174.875 75.83V16.356H185.762V41.2181H190.556L205.668 16.356H218.912L200.712 46.1743L218.912 75.83H205.668L190.556 51.2929H185.844V75.83H174.875Z" fill="white"/>
<path d="M128.613 64.1302V28.7058C128.613 26.7017 128.884 24.9413 129.426 23.4246C129.968 21.908 130.672 20.7164 131.538 19.8497C132.405 18.983 133.407 18.2789 134.545 17.7372C135.736 17.1414 136.874 16.7623 137.957 16.5998C139.094 16.4373 140.286 16.356 141.532 16.356C155.507 16.7352 164.227 17.1685 167.694 17.656V27.0808H144.213C143.184 27.0808 142.371 27.1892 141.776 27.4058C141.18 27.6225 140.747 28.0016 140.476 28.5433C140.259 29.085 140.124 29.5454 140.069 29.9245C140.015 30.3037 139.988 30.8724 139.988 31.6308V40.8931L164.038 41.7056V51.1304L139.988 51.8617V61.124C139.988 62.1532 140.124 62.9927 140.394 63.6427C140.665 64.2385 141.099 64.6719 141.694 64.9427C142.29 65.1594 142.778 65.2948 143.157 65.3489C143.59 65.3489 144.213 65.3489 145.026 65.3489H167.694V74.6925C166.34 74.855 163.55 75.0717 159.325 75.3425C155.1 75.5592 151.201 75.7217 147.626 75.83L142.344 76.0738C141.099 76.1279 139.934 76.1009 138.851 75.9925C137.767 75.8842 136.576 75.5863 135.276 75.0988C133.976 74.6113 132.838 73.9613 131.863 73.1488C130.943 72.3363 130.157 71.1718 129.507 69.6551C128.911 68.0843 128.613 66.2427 128.613 64.1302Z" fill="white"/>
<path d="M74.9804 75.83V16.356H100.249C114.007 16.356 120.886 26.3496 120.886 46.3368C120.886 50.7784 120.48 54.7866 119.667 58.3616C118.855 61.8823 117.636 64.9698 116.011 67.6239C114.386 70.278 112.219 72.3092 109.511 73.7176C106.857 75.1259 103.77 75.83 100.249 75.83H74.9804ZM86.3553 65.6739H99.355C106.126 65.6739 109.511 59.2011 109.511 46.2555C109.511 43.1139 109.349 40.4056 109.024 38.1306C108.699 35.8015 108.265 33.9057 107.724 32.4432C107.182 30.9266 106.478 29.735 105.611 28.8683C104.745 27.9475 103.797 27.3246 102.767 26.9996C101.793 26.6204 100.655 26.4308 99.355 26.4308H86.3553V65.6739Z" fill="white"/>
<path d="M19.9154 75.83V16.356H31.4528L55.0149 54.7866V16.356H66.3897V75.83H55.0149L31.3715 37.8056V75.83H19.9154Z" fill="white"/>
<path d="M0 75.83V16.356H11.3748V75.83H0Z" fill="white"/>
<path d="M522.865 3.03122V9.20611C522.865 9.74777 523.054 10.1811 523.434 10.5061C523.813 10.8853 524.273 11.0748 524.815 11.0748H530.665C531.911 11.0748 532.533 10.4519 532.533 9.20611V3.03122C532.533 2.43539 532.371 1.9479 532.046 1.56874C531.721 1.18958 531.261 1 530.665 1H524.815C523.515 1 522.865 1.67707 522.865 3.03122Z" fill="white"/>
<path d="M521.9 2.41936V9.77419C521.9 10.4194 522.095 10.9355 522.484 11.3226C522.873 11.7742 523.345 12 523.9 12H531.984C533.262 12 533.9 11.2581 533.9 9.77419V2.41936C533.9 1.70968 533.734 1.12903 533.4 0.677422C533.067 0.225807 532.595 0 531.984 0H523.9C522.567 0 521.9 0.806453 521.9 2.41936Z" fill="#C2323C"/>
</svg>
